<svg id="Lag_1" data-name="Lag 1" xmlns="http://www.w3.org/2000/svg" viewBox="0 0 429.11 250.45"><defs><style>.cls-1{fill:#fde3cc;}.cls-2,.cls-4,.cls-5{fill:#1d1d1b;stroke:#1d1d1b;stroke-miterlimit:10;}.cls-2{stroke-width:1.5px;}.cls-3{fill:#d6ebe5;}.cls-4{stroke-width:0.25px;}.cls-5{stroke-width:0.35px;}</style></defs><path class="cls-1" d="M12.71,58.41s8-25,27.59-35.2S73.65,15,79.08,15.61s25.2,5.21,30.53,9.13,18.25,16.94,20.85,20.64,4,9.34,4.57,13,2.6,9.29,2.39,15-3,18.69-6.09,26.08-12.16,22.59-18.9,26.94-13.9,7.82-31.5,9.34-29.33.87-42.37-5.87-17-10.43-23-23.46-6.08-30.2-5.21-36.5a90.3,90.3,0,0,1,2.39-11.52" transform="translate(-9.9 -15.02)"/><path class="cls-2" d="M119.21,160h-3V103.35q0-1.35-.78-1.35c-.4,0-.71.49-1,1.48l-12.16,51.14q-1.29,5.48-4,5.47t-4-5.47L82.18,103.48c-.24-1-.55-1.48-.94-1.48s-.76.45-.76,1.35v56.74h-3V103.56c0-3.19,1.26-4.79,3.76-4.79,2,0,3.26,1.36,3.9,4.07l12.37,52c.22.93.5,1.4.83,1.4s.57-.45.79-1.36l12.42-52.07q1-4.07,4-4.07c2.46,0,3.69,1.59,3.69,4.75Z" transform="translate(-9.9 -15.02)"/><path class="cls-2" d="M183.55,129.6q0,15.27-6.46,23-7,8.43-16.58,8.44-10.59,0-17.59-9.16-5.55-7.26-5.54-22.31t5.6-22.3q6.93-9,17.53-9t17.5,9.16Q183.55,114.68,183.55,129.6Zm-3.2-.08q0-13.53-4.51-19.64-6.06-8.14-15.33-8.14t-15.39,8.1q-4.55,6.1-4.55,19.68t4.55,19.71q6,8.19,15.39,8.19t15.33-8.23Q180.36,143,180.35,129.52Z" transform="translate(-9.9 -15.02)"/><path class="cls-2" d="M231.65,116.84a19.86,19.86,0,0,1-5,13.82,14.21,14.21,0,0,1-3.06,2.55l8,26.75-3.05,0-7.68-25.51a18.93,18.93,0,0,1-6.34,1h-9.84V160h-3V105.64a7.19,7.19,0,0,1,2.21-5.72,5.71,5.71,0,0,1,3.87-1.49l9.11,0a13.07,13.07,0,0,1,10.68,5Q231.66,108.53,231.65,116.84Zm-3.19.08q0-6.73-3.1-10.87a10,10,0,0,0-8.47-4.14H207.5q-2.76.51-2.76,3.69v26.33h10.89a11.7,11.7,0,0,0,9.22-3.86Q228.45,124.05,228.46,116.92Z" transform="translate(-9.9 -15.02)"/><path class="cls-2" d="M282.88,154.75c0,3.64-1.31,5.47-3.92,5.47q-2.65,0-4.26-4.19l-20-52.89c-.23-.59-.54-.89-.93-.89-.62,0-.93.52-.93,1.57V160h-3V104.24c0-3.64,1.3-5.47,3.91-5.47,1.79,0,3.2,1.39,4.25,4.16l20,52.83q.35.9.9.9c.62,0,.93-.5.93-1.49V99.28h3Z" transform="translate(-9.9 -15.02)"/><path class="cls-2" d="M331.59,144.36q0,8.14-4.69,12.21-4.08,3.56-10.83,3.44h-2.82q-11.52,0-11.52-15.82v-2.42h2.65v2.42q0,12.17,9.1,12.17h1.09a18.47,18.47,0,0,0,8.36-1.74q5.32-2.67,5.33-10a11.65,11.65,0,0,0-3.7-9,37,37,0,0,0-7.7-4.71l-3.14-1.54q-6.59-3.32-8.87-5.68-3.8-3.94-3.8-10.82,0-13.65,15.39-13.65h3.5q11.47,0,11.48,15.65v2.42h-2.65v-2.41q0-12.31-9.15-12.31h-4.05q-11.49,0-11.5,10.08a11.14,11.14,0,0,0,3,8.25,27.67,27.67,0,0,0,6.88,4.32l4.83,2.37q6.42,3.18,8.32,5.17A16.17,16.17,0,0,1,331.59,144.36Z" transform="translate(-9.9 -15.02)"/><path class="cls-2" d="M395.93,129.6q0,15.27-6.45,23-7,8.43-16.58,8.44-10.61,0-17.6-9.16-5.54-7.26-5.54-22.31t5.61-22.3q6.93-9,17.53-9t17.5,9.16Q395.93,114.68,395.93,129.6Zm-3.19-.08q0-13.53-4.52-19.64-6-8.14-15.32-8.14t-15.39,8.1q-4.56,6.1-4.55,19.68t4.55,19.71q6,8.19,15.39,8.19t15.32-8.23Q392.74,143,392.74,129.52Z" transform="translate(-9.9 -15.02)"/><path class="cls-2" d="M438.26,160H420.19a5.65,5.65,0,0,1-3.88-1.49,7.24,7.24,0,0,1-2.21-5.72V99.28h3v53.56q0,3.18,2.75,3.69h18.38Z" transform="translate(-9.9 -15.02)"/><path class="cls-3" d="M95.69,195.67c-.67-4,30.14-15.61,44-13.78s26.65-2.12,49.17-.14,30,4.06,41.86,6.69-8.32,5.46-19.34,7.26S96.37,199.7,95.69,195.67Z" transform="translate(-9.9 -15.02)"/><path class="cls-3" d="M298.84,219.74s6.64-9.44,25-7.69,27.54,7.2,39.48,7.69,28.46-.43,20.2,4.17-109.64,3.3-108.34,0C275.18,222.74,275.77,214,298.84,219.74Z" transform="translate(-9.9 -15.02)"/><path class="cls-3" d="M119.17,225.43c-.45-3,16.28-7.61,31-6.2s23-6.35,36.72-3.85,19.28,4.49,28.46,4.87,34.21-.65,27.21,5.38S120.34,233,119.17,225.43Z" transform="translate(-9.9 -15.02)"/><path class="cls-3" d="M323.93,191.51c-.34-2.95,12.23-7.61,23.27-6.2s17.25-6.35,27.59-3.85,14.49,4.49,21.39,4.88,25.7-.66,20.43,5.37S324.81,199.06,323.93,191.51Z" transform="translate(-9.9 -15.02)"/><path class="cls-3" d="M191,251.58s8.61-4.72,23.38-4.72,35-8.27,45.07-8.27,28.5,14.86,39.8,14.86,39.15-1.6,37.32,4.63S170.3,273.67,191,251.58Z" transform="translate(-9.9 -15.02)"/><path class="cls-3" d="M255.64,195.92s-.69-3.63,10.5-4.1,11.88,2.82,17.73,3.43,15.49-1.71,18.07.67-2.06,3.33-10.67,3.8-13.49,1.69-22.89,1.87c-7.14.15-22.55-2-20.49-3.47S255.64,195.92,255.64,195.92Z" transform="translate(-9.9 -15.02)"/><path class="cls-4" d="M157.84,72.25a38.25,38.25,0,0,1-3.05,3.49l3.7,4.16h-.91l-3.2-3.77-.72.7V79.9H153V69.17h.68V76a22.93,22.93,0,0,0,3.3-3.77Z" transform="translate(-9.9 -15.02)"/><path class="cls-4" d="M162.58,79.9h-.68V74.61l-.28-2.44h.65l.26,2.16c.51-1,1.3-2.24,2.62-2.24s1.6,1.28,1.6,2.32h-.68c0-.71,0-1.74-1-1.74-.78,0-2.51,1.22-2.51,4.12Z" transform="translate(-9.9 -15.02)"/><path class="cls-4" d="M175.32,79.36a6.61,6.61,0,0,1-2.73.7c-2.24,0-3.06-2-3.06-4s.85-4,3.11-4c1.28,0,2.8.93,2.8,4.09h-5.23c.13,2.69,1.24,3.3,2.41,3.3a4.75,4.75,0,0,0,2.41-.75Zm-.56-3.75c.07-1.32-.71-2.94-2.21-2.94s-2.38,1.59-2.34,2.94Z" transform="translate(-9.9 -15.02)"/><path class="cls-4" d="M182.91,80.06a6.59,6.59,0,0,1-.29-1.3,2.44,2.44,0,0,1-2.09,1.3,2.19,2.19,0,0,1-2.13-2.43c0-1.46.83-2.72,2.3-2.72a4.57,4.57,0,0,1,1.86.51c.05-1.94-.3-2.75-1.56-2.75a4.3,4.3,0,0,0-1.83.51l-.16-.62a5.48,5.48,0,0,1,2-.47c1.4,0,2.24,1,2.19,2.69l-.08,3.12a6.34,6.34,0,0,0,.37,2.07ZM182.52,76a3.77,3.77,0,0,0-1.66-.46c-1.27,0-1.78,1.07-1.78,2.2a1.61,1.61,0,0,0,1.45,1.79c.95,0,1.53-.77,2-1.55Z" transform="translate(-9.9 -15.02)"/><path class="cls-4" d="M192,72.83h-2.81v5.22c0,.73.28,1.43,1.22,1.43a2,2,0,0,0,1.77-1.36l.66.16a2.82,2.82,0,0,1-2.46,1.78c-1,0-1.86-.48-1.86-2.42V72.83h-1.72v-.58h1.72V69.8h.67v2.45H192Z" transform="translate(-9.9 -15.02)"/><path class="cls-4" d="M198.32,72.83h-2.23v-.58H199V79.9h-.68ZM199.4,70a.76.76,0,1,1-.76-.75A.76.76,0,0,1,199.4,70Z" transform="translate(-9.9 -15.02)"/><path class="cls-4" d="M209.94,72.25,207.52,80h-.79l-2.41-7.75H205L207.12,79l2.09-6.72Z" transform="translate(-9.9 -15.02)"/><path class="cls-4" d="M215.66,72.83h-2.22v-.58h2.9V79.9h-.68ZM216.74,70a.75.75,0,0,1-.76.75.75.75,0,0,1,0-1.5A.75.75,0,0,1,216.74,70Z" transform="translate(-9.9 -15.02)"/><path class="cls-4" d="M226.67,72.83h-2.8v5.22c0,.73.27,1.43,1.21,1.43a2,2,0,0,0,1.78-1.36l.65.16a2.81,2.81,0,0,1-2.46,1.78c-1,0-1.86-.48-1.86-2.42V72.83h-1.72v-.58h1.72V69.8h.68v2.45h2.8Z" transform="translate(-9.9 -15.02)"/><path class="cls-4" d="M236,79.36a6.61,6.61,0,0,1-2.73.7c-2.24,0-3.06-2-3.06-4s.85-4,3.11-4c1.28,0,2.8.93,2.8,4.09h-5.23c.13,2.69,1.24,3.3,2.41,3.3a4.75,4.75,0,0,0,2.41-.75Zm-.56-3.75c.07-1.32-.71-2.94-2.21-2.94s-2.39,1.59-2.34,2.94Z" transform="translate(-9.9 -15.02)"/><path class="cls-4" d="M244,72.83h-2.81v5.22c0,.73.28,1.43,1.22,1.43a2,2,0,0,0,1.77-1.36l.65.16a2.8,2.8,0,0,1-2.45,1.78c-1,0-1.87-.48-1.87-2.42V72.83h-1.72v-.58h1.72V69.8h.68v2.45H244Z" transform="translate(-9.9 -15.02)"/><path class="cls-4" d="M266,69.17v3.57a3.08,3.08,0,0,1,1.88-.65c1.06,0,3,.87,3,3.93s-1.69,4-3,4a2.22,2.22,0,0,1-2-1.26l-.28,1.26L265,80a9.5,9.5,0,0,0,.34-2.76v-8ZM266,78c.38.82.9,1.53,1.91,1.53s2.3-.75,2.3-3.41-1.63-3.4-2.5-3.4a2.65,2.65,0,0,0-1.71.75Z" transform="translate(-9.9 -15.02)"/><path class="cls-4" d="M279.38,79.36a6.65,6.65,0,0,1-2.73.7c-2.24,0-3.06-2-3.06-4s.85-4,3.1-4c1.29,0,2.81.93,2.81,4.09h-5.23c.13,2.69,1.24,3.3,2.41,3.3a4.75,4.75,0,0,0,2.41-.75Zm-.56-3.75c.07-1.32-.71-2.94-2.21-2.94s-2.39,1.59-2.34,2.94Z" transform="translate(-9.9 -15.02)"/><path class="cls-4" d="M288,72.25,285.57,80h-.8l-2.41-7.75h.72L285.16,79l2.1-6.72Z" transform="translate(-9.9 -15.02)"/><path class="cls-4" d="M294.2,78c0,1,.24,1.48,1,1.48a4.38,4.38,0,0,0,2.11-.81l.25.56a5.16,5.16,0,0,1-2.34.83,1.43,1.43,0,0,1-1.37-.67,2.06,2.06,0,0,1-1.59.67c-1.38,0-2-1.17-2-2.42s.71-2.69,2.24-2.69a2.24,2.24,0,0,1,1.07.27v-1.1c0-1-.28-1.45-.93-1.45a3.22,3.22,0,0,0-1.72.74l-.16-.61a4.17,4.17,0,0,1,1.88-.71,1.42,1.42,0,0,1,1.22.6,1.81,1.81,0,0,1,1.4-.6,1.9,1.9,0,0,1,1.67,1.09,5.46,5.46,0,0,1,.58,3H294.2Zm-.68-2.13a2,2,0,0,0-1.12-.34c-1.14,0-1.51,1.22-1.51,2.16a1.59,1.59,0,0,0,1.47,1.79c1.19,0,1.16-.88,1.16-1.77Zm3.26-.29c0-1-.32-2.91-1.69-2.91-.63,0-.89.39-.89,1.4v1.51Z" transform="translate(-9.9 -15.02)"/><path class="cls-4" d="M300.61,80.89a2.5,2.5,0,0,0,1.88.87c.85,0,1.95-.62,1.95-2.54v-.94a3.19,3.19,0,0,1-2.15.94c-1.82,0-2.64-1.82-2.64-3.41,0-1.77.72-3.72,2.8-3.72a3.22,3.22,0,0,1,2.08.89l.2-.89h.69a16.11,16.11,0,0,0-.33,4V79.3a2.74,2.74,0,0,1-2.73,3,3.3,3.3,0,0,1-2.22-1Zm3.8-7.11a2.51,2.51,0,0,0-2-1.11c-1.58,0-2.1,1.71-2.1,3,0,2.41,1.41,3,2,3a2.55,2.55,0,0,0,2.06-1.17Z" transform="translate(-9.9 -15.02)"/><path class="cls-4" d="M314.07,79.36a6.65,6.65,0,0,1-2.73.7c-2.24,0-3.07-2-3.07-4s.86-4,3.11-4c1.29,0,2.8.93,2.8,4.09H309c.13,2.69,1.25,3.3,2.42,3.3a4.78,4.78,0,0,0,2.41-.75Zm-.56-3.75c.07-1.32-.71-2.94-2.22-2.94s-2.38,1.59-2.34,2.94Z" transform="translate(-9.9 -15.02)"/><path class="cls-4" d="M319.62,69.75h-2.26v-.58h2.94V79.9h-.68Z" transform="translate(-9.9 -15.02)"/><path class="cls-4" d="M330.42,73.47a3.57,3.57,0,0,0-2.06-.8,1.47,1.47,0,0,0-1.51,1.39c0,.89,1,1.31,1.69,1.57,1.17.45,2.4.91,2.4,2.4a2.14,2.14,0,0,1-2.3,2,4.92,4.92,0,0,1-2.88-1.23l.38-.55a4,4,0,0,0,2.53,1.2,1.43,1.43,0,0,0,1.59-1.4c0-1.15-.89-1.48-1.8-1.82s-2.29-.9-2.29-2.26a2.13,2.13,0,0,1,2.24-1.91,3.78,3.78,0,0,1,2.29.81Z" transform="translate(-9.9 -15.02)"/><path class="cls-4" d="M340.08,79.36a6.61,6.61,0,0,1-2.73.7c-2.24,0-3.06-2-3.06-4s.85-4,3.11-4c1.28,0,2.8.93,2.8,4.09H335c.13,2.69,1.24,3.3,2.41,3.3a4.82,4.82,0,0,0,2.42-.75Zm-.56-3.75c.07-1.32-.71-2.94-2.21-2.94s-2.39,1.59-2.34,2.94Z" transform="translate(-9.9 -15.02)"/><path class="cls-4" d="M361.33,79.9h-.68V76.07a19.72,19.72,0,0,0-.3-3.9H361l.28,2.19h0A3.12,3.12,0,0,1,364,72.09c1.39,0,1.78,1.2,1.78,2.36V79.9h-.68V74.77c0-.88,0-2.1-1.18-2.1s-2.59,1.1-2.59,4.08Z" transform="translate(-9.9 -15.02)"/><path class="cls-4" d="M372.24,78c0,1,.25,1.48,1,1.48a4.42,4.42,0,0,0,2.11-.81l.25.56a5.16,5.16,0,0,1-2.34.83,1.46,1.46,0,0,1-1.38-.67,2,2,0,0,1-1.59.67c-1.37,0-2-1.17-2-2.42S369,75,370.49,75a2.21,2.21,0,0,1,1.07.27v-1.1c0-1-.27-1.45-.92-1.45a3.22,3.22,0,0,0-1.72.74l-.16-.61a4.17,4.17,0,0,1,1.88-.71,1.39,1.39,0,0,1,1.21.6,1.84,1.84,0,0,1,1.4-.6,1.92,1.92,0,0,1,1.68,1.09,5.56,5.56,0,0,1,.58,3h-3.27Zm-.68-2.13a2,2,0,0,0-1.11-.34c-1.14,0-1.52,1.22-1.52,2.16a1.6,1.6,0,0,0,1.48,1.79c1.18,0,1.15-.88,1.15-1.77Zm3.27-.29c0-1-.32-2.91-1.69-2.91-.64,0-.9.39-.9,1.4v1.51Z" transform="translate(-9.9 -15.02)"/><path class="cls-4" d="M379.37,79.9h-.68V74.61l-.27-2.44h.64l.27,2.16c.5-1,1.3-2.24,2.61-2.24s1.6,1.28,1.6,2.32h-.67c0-.71-.06-1.74-1-1.74-.78,0-2.51,1.22-2.51,4.12Z" transform="translate(-9.9 -15.02)"/><path class="cls-4" d="M392,72.25,389.63,80h-.79l-2.42-7.75h.72L389.22,79l2.1-6.72Z" transform="translate(-9.9 -15.02)"/><path class="cls-4" d="M398.26,78c0,1,.24,1.48,1,1.48a4.46,4.46,0,0,0,2.11-.81l.24.56a5.12,5.12,0,0,1-2.34.83,1.45,1.45,0,0,1-1.37-.67,2.06,2.06,0,0,1-1.59.67c-1.37,0-2-1.17-2-2.42S395,75,396.51,75a2.24,2.24,0,0,1,1.07.27v-1.1c0-1-.28-1.45-.93-1.45a3.25,3.25,0,0,0-1.72.74l-.15-.61a4.09,4.09,0,0,1,1.87-.71,1.41,1.41,0,0,1,1.22.6,1.81,1.81,0,0,1,1.4-.6A1.93,1.93,0,0,1,401,73.18a5.47,5.47,0,0,1,.57,3h-3.26Zm-.68-2.13a2,2,0,0,0-1.11-.34c-1.14,0-1.52,1.22-1.52,2.16a1.6,1.6,0,0,0,1.47,1.79c1.19,0,1.16-.88,1.16-1.77Zm3.26-.29c0-1-.31-2.91-1.69-2.91-.63,0-.89.39-.89,1.4v1.51Z" transform="translate(-9.9 -15.02)"/><path class="cls-4" d="M405.38,79.9h-.67V74.61l-.28-2.44h.65l.26,2.16c.51-1,1.3-2.24,2.62-2.24s1.6,1.28,1.6,2.32h-.68c0-.71-.06-1.74-1-1.74s-2.52,1.22-2.52,4.12Z" transform="translate(-9.9 -15.02)"/><path class="cls-5" d="M260.67,75.82a2.5,2.5,0,0,1-1.9,1.06,1.68,1.68,0,0,1-1.66-1.08,3.53,3.53,0,0,1-2.21,1.27,2.67,2.67,0,0,1-2.15-1.31,3,3,0,0,1-2.21,1.43c-1.41,0-1.71-.67-1.71-.67v-.63a2.22,2.22,0,0,0,2.13.38c1.26-.42,1.56-1.71,1.78-1.65s.57,1.9,2.17,1.72,2-1.43,2.18-1.37.64,1.41,1.78,1.27,1.59-1.33,1.8-1.29" transform="translate(-9.9 -15.02)"/><path class="cls-5" d="M355.81,75.82a2.5,2.5,0,0,1-1.9,1.06,1.68,1.68,0,0,1-1.66-1.08A3.53,3.53,0,0,1,350,77.07a2.67,2.67,0,0,1-2.15-1.31,3,3,0,0,1-2.21,1.43c-1.41,0-1.71-.67-1.71-.67v-.63a2.22,2.22,0,0,0,2.13.38c1.26-.42,1.56-1.71,1.78-1.65s.57,1.9,2.17,1.72,2-1.43,2.18-1.37.63,1.41,1.78,1.27,1.59-1.33,1.8-1.29" transform="translate(-9.9 -15.02)"/></svg>