<svg id="Lag_1" data-name="Lag 1" xmlns="http://www.w3.org/2000/svg" viewBox="0 0 429.11 250.45"><defs><style>.cls-1{fill:#fde3cc;}.cls-2{fill:#1d1d1b;stroke:#1d1d1b;stroke-miterlimit:10;stroke-width:1.5px;}.cls-3{fill:#d6ebe5;}</style></defs><path class="cls-1" d="M12.71,58.41s8-25,27.59-35.2S73.65,15,79.08,15.61s25.2,5.21,30.53,9.13,18.25,16.94,20.85,20.64,4,9.34,4.57,13,2.6,9.29,2.39,15-3,18.69-6.09,26.08-12.16,22.59-18.9,26.94-13.9,7.82-31.5,9.34-29.33.87-42.37-5.87-17-10.43-23-23.46-6.08-30.2-5.21-36.5a90.3,90.3,0,0,1,2.39-11.52" transform="translate(-9.9 -15.02)"/><path class="cls-2" d="M119.21,160h-3V103.35q0-1.35-.78-1.35c-.4,0-.71.49-1,1.48l-12.16,51.14q-1.29,5.48-4,5.47t-4-5.47L82.18,103.48c-.24-1-.55-1.48-.94-1.48s-.76.45-.76,1.35v56.74h-3V103.56c0-3.19,1.26-4.79,3.76-4.79,2,0,3.26,1.36,3.9,4.07l12.37,52c.22.93.5,1.4.83,1.4s.57-.45.79-1.36l12.42-52.07q1-4.07,4-4.07c2.46,0,3.69,1.59,3.69,4.75Z" transform="translate(-9.9 -15.02)"/><path class="cls-2" d="M183.55,129.6q0,15.27-6.46,23-7,8.43-16.58,8.44-10.59,0-17.59-9.16-5.55-7.26-5.54-22.31t5.6-22.3q6.93-9,17.53-9t17.5,9.16Q183.55,114.68,183.55,129.6Zm-3.2-.08q0-13.53-4.51-19.64-6.06-8.14-15.33-8.14t-15.39,8.1q-4.55,6.1-4.55,19.68t4.55,19.71q6,8.19,15.39,8.19t15.33-8.23Q180.36,143,180.35,129.52Z" transform="translate(-9.9 -15.02)"/><path class="cls-2" d="M231.65,116.84a19.86,19.86,0,0,1-5,13.82,14.21,14.21,0,0,1-3.06,2.55l8,26.75-3.05,0-7.68-25.51a18.93,18.93,0,0,1-6.34,1h-9.84V160h-3V105.64a7.19,7.19,0,0,1,2.21-5.72,5.71,5.71,0,0,1,3.87-1.49l9.11,0a13.07,13.07,0,0,1,10.68,5Q231.66,108.53,231.65,116.84Zm-3.19.08q0-6.73-3.1-10.87a10,10,0,0,0-8.47-4.14H207.5q-2.76.51-2.76,3.69v26.33h10.89a11.7,11.7,0,0,0,9.22-3.86Q228.45,124.05,228.46,116.92Z" transform="translate(-9.9 -15.02)"/><path class="cls-2" d="M282.88,154.75c0,3.64-1.31,5.47-3.92,5.47q-2.65,0-4.26-4.19l-20-52.89c-.23-.59-.54-.89-.93-.89-.62,0-.93.52-.93,1.57V160h-3V104.24c0-3.64,1.3-5.47,3.91-5.47,1.79,0,3.2,1.39,4.25,4.16l20,52.83q.35.9.9.9c.62,0,.93-.5.93-1.49V99.28h3Z" transform="translate(-9.9 -15.02)"/><path class="cls-2" d="M331.59,144.36q0,8.14-4.69,12.21-4.08,3.56-10.83,3.44h-2.82q-11.52,0-11.52-15.82v-2.42h2.65v2.42q0,12.17,9.1,12.17h1.09a18.47,18.47,0,0,0,8.36-1.74q5.32-2.67,5.33-10a11.65,11.65,0,0,0-3.7-9,37,37,0,0,0-7.7-4.71l-3.14-1.54q-6.59-3.32-8.87-5.68-3.8-3.94-3.8-10.82,0-13.65,15.39-13.65h3.5q11.47,0,11.48,15.65v2.42h-2.65v-2.41q0-12.31-9.15-12.31h-4.05q-11.49,0-11.5,10.08a11.14,11.14,0,0,0,3,8.25,27.67,27.67,0,0,0,6.88,4.32l4.83,2.37q6.42,3.18,8.32,5.17A16.17,16.17,0,0,1,331.59,144.36Z" transform="translate(-9.9 -15.02)"/><path class="cls-2" d="M395.93,129.6q0,15.27-6.45,23-7,8.43-16.58,8.44-10.61,0-17.6-9.16-5.54-7.26-5.54-22.31t5.61-22.3q6.93-9,17.53-9t17.5,9.16Q395.93,114.68,395.93,129.6Zm-3.19-.08q0-13.53-4.52-19.64-6-8.14-15.32-8.14t-15.39,8.1q-4.56,6.1-4.55,19.68t4.55,19.71q6,8.19,15.39,8.19t15.32-8.23Q392.74,143,392.74,129.52Z" transform="translate(-9.9 -15.02)"/><path class="cls-2" d="M438.26,160H420.19a5.65,5.65,0,0,1-3.88-1.49,7.24,7.24,0,0,1-2.21-5.72V99.28h3v53.56q0,3.18,2.75,3.69h18.38Z" transform="translate(-9.9 -15.02)"/><path class="cls-3" d="M95.69,195.67c-.67-4,30.14-15.61,44-13.78s26.65-2.12,49.17-.14,30,4.06,41.86,6.69-8.32,5.46-19.34,7.26S96.37,199.7,95.69,195.67Z" transform="translate(-9.9 -15.02)"/><path class="cls-3" d="M298.84,219.74s6.64-9.44,25-7.69,27.54,7.2,39.48,7.69,28.46-.43,20.2,4.17-109.64,3.3-108.34,0C275.18,222.74,275.77,214,298.84,219.74Z" transform="translate(-9.9 -15.02)"/><path class="cls-3" d="M119.17,225.43c-.45-3,16.28-7.61,31-6.2s23-6.35,36.72-3.85,19.28,4.49,28.46,4.87,34.21-.65,27.21,5.38S120.34,233,119.17,225.43Z" transform="translate(-9.9 -15.02)"/><path class="cls-3" d="M323.93,191.51c-.34-2.95,12.23-7.61,23.27-6.2s17.25-6.35,27.59-3.85,14.49,4.49,21.39,4.88,25.7-.66,20.43,5.37S324.81,199.06,323.93,191.51Z" transform="translate(-9.9 -15.02)"/><path class="cls-3" d="M191,251.58s8.61-4.72,23.38-4.72,35-8.27,45.07-8.27,28.5,14.86,39.8,14.86,39.15-1.6,37.32,4.63S170.3,273.67,191,251.58Z" transform="translate(-9.9 -15.02)"/><path class="cls-3" d="M255.64,195.92s-.69-3.63,10.5-4.1,11.88,2.82,17.73,3.43,15.49-1.71,18.07.67-2.06,3.33-10.67,3.8-13.49,1.69-22.89,1.87c-7.14.15-22.55-2-20.49-3.47S255.64,195.92,255.64,195.92Z" transform="translate(-9.9 -15.02)"/></svg>